<?xml version="1.0" encoding="utf-8"?>
<!-- Generator: Adobe Illustrator 24.1.3, SVG Export Plug-In . SVG Version: 6.00 Build 0)  -->
<svg version="1.1" id="Layer_1" xmlns="http://www.w3.org/2000/svg" xmlns:xlink="http://www.w3.org/1999/xlink" x="0px" y="0px"
	 viewBox="0 0 85 77" style="enable-background:new 0 0 85 77;" xml:space="preserve">
<style type="text/css">
	.st0{fill:#ED1C25;}
</style>
<g>
	<g>
		<path class="st0" d="M83,73.9c0.7,0,1.3,0.6,1.3,1.3c0,0.7-0.6,1.3-1.3,1.3H2c-0.7,0-1.4-0.6-1.4-1.3c0-0.7,0.6-1.3,1.4-1.3h2
			V41.6c0-0.7,0.6-1.3,1.3-1.3h14.3v-12c0-0.7,0.6-1.4,1.4-1.4h20.2v-4c-5.7-0.6-10.1-5.5-10.1-11.3c0-6.3,5.1-11.4,11.4-11.4
			s11.4,5.1,11.4,11.4c0,5.8-4.4,10.7-10.1,11.3v4H64c0.7,0,1.3,0.6,1.3,1.4v11.9h14.3c0.7,0,1.3,0.6,1.3,1.3v32.3L83,73.9L83,73.9z
			 M33.8,11.5c0,4.8,3.8,8.6,8.5,8.7h0.5c4.7-0.2,8.5-4,8.5-8.7c0-4.8-4-8.7-8.7-8.7C37.7,2.8,33.8,6.7,33.8,11.5L33.8,11.5z
			 M78.3,42.9h-13v7.5h13L78.3,42.9z M22.3,29.7v10.6h40.3V29.7H22.3z M14.5,53.1v20.7h5.1V53.1L14.5,53.1z M6.7,42.9v7.5l13,0v-7.5
			L6.7,42.9z M6.7,73.8h5.1V53.1H6.7L6.7,73.8z M22.3,73.8h5.5V51.7c0-0.7,0.6-1.3,1.4-1.3h26.6c0.7,0,1.3,0.6,1.3,1.3v22.1h5.5
			V42.9H22.3L22.3,73.8z M30.5,73.8h10.6V53.1H30.5L30.5,73.8z M54.5,73.9V53.2H43.8v20.7H54.5z M65.4,73.8h5.1V53.1h-5.1V73.8z
			 M78.3,73.9V53.2h-5.1v20.7H78.3z M41.2,16.4v-3.6h-3.6c-0.7,0-1.3-0.6-1.3-1.4s0.6-1.4,1.3-1.4h3.6V6.5c0-0.7,0.6-1.3,1.3-1.3
			c0.7,0,1.3,0.6,1.3,1.3v3.6h3.6c0.7,0,1.3,0.6,1.3,1.4s-0.6,1.4-1.3,1.4h-3.6v3.6c0,0.7-0.6,1.4-1.3,1.4
			C41.8,17.8,41.2,17.2,41.2,16.4z"/>
	</g>
</g>
</svg>
