<svg id="Capa_1" enable-background="new 0 0 512 512" height="512" viewBox="0 0 512 512" width="512" xmlns="http://www.w3.org/2000/svg"><g><path fill="#5b7189" d="m482 323.927v30.314h-321.103v-7.431c0-28.819-23.446-52.266-52.266-52.266h-56.366c-7.96 0-15.506 1.796-22.265 4.993v-67.959h-30v252.922h30v-31.114h452v31.114h30v-160.573zm-429.735.618h56.367c12.277 0 22.266 9.988 22.266 22.266v7.431h-100.898v-7.431c0-12.278 9.988-22.266 22.265-22.266zm-22.265 59.697h129.011l-11.323 39.145h-117.688zm148.917 39.144 11.323-39.145h291.76v39.145z"/><path fill="#5b7189" d="m477.174 27.5h-204.863v204.863h204.863zm-30 174.863h-144.863v-144.863h144.863z"/><path fill="#5b7189" d="m359.742 166.932h30v-22h22v-30h-22v-22h-30v22h-22v30h22z"/></g></svg>