<svg id="Layer_1" enable-background="new 0 0 511.926 511.926" height="512" viewBox="0 0 511.926 511.926" width="512" xmlns="http://www.w3.org/2000/svg"><g><path fill="#5b7189" d="m509.916 332.773-.292-.507c-23.985-41.533-76.547-56.313-119.663-33.646l-72.365 38.042c-2.388-14.573-11.305-27.146-25.318-35.237l-61.269-35.374c-8.699-6.114-18.882-9.34-29.509-9.34h-85.478v-16.175c0-8.284-6.716-15-15-15h-86.022c-8.284 0-15 6.716-15 15v208.873c0 8.284 6.716 15 15 15h86.021c8.284 0 15-6.716 15-15v-29.898h19.016l111.682 64.61c15.721 9.088 33.409 10.071 48.62.567l209.567-131.718c6.827-4.291 9.04-13.212 5.01-20.197zm-423.895 101.636h-56.021v-178.872h56.021zm193.354 24.88c-6.209 3.902-13.016 1.537-17.633-1.135l-115.167-66.627c-2.283-1.321-4.874-2.016-7.511-2.016h-23.042v-102.799h85.478c4.529 0 8.872 1.417 12.56 4.1.425.31 63.218 36.595 63.218 36.595 16.514 8.745 12.858 29.678-1.083 38.139-6.257 3.612-13.126 3.309-20.417-.9l-57.026-32.924c-2.28-1.316-4.867-2.01-7.5-2.01h-25.252c-19.902.793-19.887 29.215 0 30h21.233l53.544 30.914c16.114 9.3 34.446 10.09 50.417.9 6.968-4.023 12.886-9.65 17.399-16.239l95.327-50.112c24.5-12.879 53.493-7.786 71.394 10.962z"/><path fill="#5b7189" d="m312.237 160.01-35.166 39.562c-5.504 6.191-4.946 15.672 1.246 21.176 6.169 5.49 15.657 4.962 21.176-1.246l32.858-36.965 32.503 36.687c5.51 6.217 14.996 6.758 21.175 1.28 6.201-5.494 6.774-14.974 1.28-21.175l-34.835-39.318c15.093-15.822 44.968-53.922 44.431-79.05.001-33.318-28.956-60.425-64.549-60.425s-64.549 27.106-64.549 60.425c-.562 25.065 29.372 63.29 44.43 79.049zm20.12-109.473c19.051 0 34.549 13.648 34.549 30.425 0 4.951-4.382 17.003-16.732 34.672-2.691 3.85-17.785 21.706-17.785 21.706s-15.445-18.266-17.849-21.706c-12.35-17.669-16.732-29.721-16.732-34.672 0-16.777 15.498-30.425 34.549-30.425z"/></g></svg>