<?xml version="1.0" encoding="iso-8859-1"?>
<!-- Generator: Adobe Illustrator 19.0.0, SVG Export Plug-In . SVG Version: 6.00 Build 0)  -->
<svg version="1.1" id="Capa_1" xmlns="http://www.w3.org/2000/svg" xmlns:xlink="http://www.w3.org/1999/xlink" x="0px" y="0px"
	 viewBox="0 0 512.003 512.003" style="enable-background:new 0 0 512.003 512.003;" xml:space="preserve">
<g>
	<g>
		<path fill="#5b7189" d="M507.609,4.395c-5.857-5.858-15.355-5.858-21.213,0l-70.167,70.167c-16.724-7.967-37.383-5.045-51.209,8.782
			l-33.644,33.644c-16.724-7.967-37.383-5.044-51.209,8.782c-5.519,5.52-138.832,138.833-146.063,146.063
			c-17.372-7.048-36.111-10.747-55.418-10.747c-0.014,0-0.03,0-0.045,0c-24.812,0-44.997,20.185-44.997,44.997
			S53.83,351.08,78.641,351.08c5.523,0,11.002,0.827,16.255,2.387l-58.682,58.682l-10.607-10.607
			c-5.857-5.858-15.355-5.858-21.213,0c-5.858,5.858-5.858,15.355,0,21.213c8.922,8.922,75.664,75.664,84.853,84.853
			c5.857,5.858,15.356,5.858,21.213,0c5.858-5.858,5.858-15.355,0-21.213l-10.607-10.607l58.682-58.682
			c1.56,5.254,2.387,10.732,2.387,16.255c0,12.022,4.68,23.323,13.177,31.82c8.498,8.497,19.798,13.177,31.819,13.177
			c24.811,0,44.997-20.186,44.997-44.993c0.005-19.325-3.694-38.081-10.748-55.467c7.582-7.582,138.692-138.693,146.063-146.063
			c13.901-13.899,16.776-34.569,8.802-51.228l33.625-33.625c13.901-13.899,16.776-34.569,8.802-51.228l70.148-70.148
			C513.468,19.751,513.468,10.253,507.609,4.395z M78.643,454.576L57.43,433.362l63.639-63.639l21.214,21.214L78.643,454.576z
			 M205.922,448.36c-8.296,0-14.997-6.701-14.997-14.997c0-23.482-9.752-45.963-25.606-61.816l-24.859-24.86
			c-15.817-15.818-38.282-25.606-61.816-25.606c-8.27,0-14.997-6.728-14.997-14.997c0-8.269,6.728-14.997,15.001-14.997
			c0.014,0,0.022,0,0.036,0c31.341,0,60.815,12.212,82.99,34.387l24.859,24.859c22.184,22.184,34.396,51.67,34.387,83.03
			C220.918,441.632,214.191,448.36,205.922,448.36z M269.563,306.083l-10.607-10.607c-5.857-5.858-15.355-5.858-21.213,0
			c-5.858,5.858-5.858,15.355,0,21.213l10.607,10.607l-23.01,23.01c-5.146-7.512-11.017-14.608-17.595-21.187l-24.859-24.859
			c-6.579-6.579-13.674-12.449-21.186-17.594l65.436-65.436l63.64,63.64L269.563,306.083z M365.021,210.624l-10.607,10.607
			l-10.606-10.606c-5.856-5.858-15.354-5.858-21.213,0c-5.859,5.858-5.858,15.355,0,21.213l10.606,10.607l-21.214,21.214
			l-63.639-63.64l53.033-53.035c5.85-5.848,15.366-5.848,21.214,0l42.426,42.427C370.884,195.274,370.884,204.761,365.021,210.624z
			 M407.447,125.771l-31.82,31.82l-21.213-21.213l31.819-31.82c5.852-5.849,15.366-5.848,21.214,0
			C413.31,110.421,413.31,119.908,407.447,125.771z"/>
	</g>
</g>
<g>
</g>
<g>
</g>
<g>
</g>
<g>
</g>
<g>
</g>
<g>
</g>
<g>
</g>
<g>
</g>
<g>
</g>
<g>
</g>
<g>
</g>
<g>
</g>
<g>
</g>
<g>
</g>
<g>
</g>
</svg>
