<?xml version="1.0" encoding="utf-8"?>
<!-- Generator: Adobe Illustrator 24.1.3, SVG Export Plug-In . SVG Version: 6.00 Build 0)  -->
<svg version="1.1" id="Layer_1" xmlns="http://www.w3.org/2000/svg" xmlns:xlink="http://www.w3.org/1999/xlink" x="0px" y="0px"
	 viewBox="0 0 29 32" style="enable-background:new 0 0 29 32;" xml:space="preserve">
<style type="text/css">
	.st0{fill:#ED1C25;}
</style>
<g>
	<g>
		<path class="st0" d="M7.2,23.3c0.6,0,1.1,0.5,1.1,1.1c0,0.6-0.5,1.1-1.1,1.1c-0.6,0-1.1-0.5-1.1-1.1C6.1,23.8,6.6,23.3,7.2,23.3z
			 M1.3,28.2c0-4.2,2.1-8.1,5.4-10.4v4.3c-1,0.2-1.8,1.2-1.8,2.3c0,1.3,1.1,2.4,2.4,2.4s2.4-1.1,2.4-2.4c0-1.1-0.8-2-1.8-2.3v-5.2
			c1.2-0.6,2.4-1.1,3.7-1.4l2.5,2.7c0.1,0.1,0.3,0.2,0.4,0.2c0.2,0,0.4-0.1,0.4-0.2l2.5-2.7c1.2,0.2,2.4,0.7,3.5,1.3v7
			c-1.7,0.3-3,1.7-3,3.5v3.5H1.3L1.3,28.2z M16.3,14.8l-1.8,2.1l-1.9-2.1v-3.3c0.6,0.2,1.2,0.3,1.8,0.3s1.3-0.1,1.9-0.3L16.3,14.8z
			 M10.3,6.5V4.7h8.3v1.9c0,2.2-1.8,4.1-4.2,4.1C12.2,10.6,10.4,8.8,10.3,6.5C10.3,6.5,10.3,6.5,10.3,6.5L10.3,6.5z M15.4,1.2
			c1.5,0,2.6,0.9,3,2.2h-7.9c0.5-1.3,1.7-2.2,3.1-2.2H15.4z M23.8,27.3v3.5h-4.7v-3.5c0-1.2,1.1-2.3,2.3-2.3
			C22.8,25,23.8,26,23.8,27.3L23.8,27.3z M22.2,17.6L22.2,17.6L22.2,17.6L22.2,17.6z M23.9,19c2.5,2.5,3.9,5.7,3.9,9.2v2.5h-2.6
			v-3.5c0-1.7-1.3-3.2-3-3.5v-6.2C22.8,18,23.3,18.5,23.9,19z M0.6,32h27.7c0.4,0,0.6-0.2,0.6-0.6v-3.2c0-3.8-1.5-7.4-4.2-10.1
			c-0.9-0.9-1.9-1.6-3-2.2l-0.1-0.1c-1.3-0.7-2.6-1.2-4.1-1.6v-3.4c1.4-1,2.3-2.5,2.3-4.3V3.9C19.7,1.7,17.8,0,15.4,0h-1.8
			c-2.3,0-4.3,1.8-4.5,4v2.5c0,1.8,0.9,3.3,2.3,4.3v3.4C4.7,15.7,0,21.5,0,28.2v3.2C0,31.7,0.3,32,0.6,32L0.6,32z"/>
	</g>
</g>
</svg>
